<svg xmlns="http://www.w3.org/2000/svg" viewBox="0 0 512 512" fill="#0088ff">
  <path d="M480 128h-32V80c0-8.84-7.16-16-16-16h-96c-8.84 0-16 7.16-16 16v48H192V80c0-8.84-7.16-16-16-16H80c-8.84 0-16 7.16-16 16v48H32c-17.67 0-32 14.33-32 32v256c0 17.67 14.33 32 32 32h448c17.67 0 32-14.33 32-32V160c0-17.67-14.33-32-32-32zM352 80h64v48h-64V80zM96 80h64v48H96V80zm368 336c0 8.84-7.16 16-16 16H64c-8.84 0-16-7.16-16-16V240h416v176z"/>
  <path d="M80 272h64v64H80zM176 272h64v64h-64zM272 272h64v64h-64zM368 272h64v64h-64z"/>
</svg>
